%FSLAX25Y25*%
%MOIN*%
G70*
G01*
G75*
G04 Layer_Color=32896*
%ADD10R,0.02362X0.06496*%
%ADD11C,0.02000*%
%ADD12C,0.01000*%
%ADD13R,0.05906X0.05906*%
%ADD14C,0.05906*%
%ADD15R,0.05906X0.05906*%
%ADD16R,0.08661X0.02362*%
%ADD17R,0.08740X0.04016*%
%ADD18R,0.02500X0.02000*%
%ADD19C,0.03000*%
%ADD20C,0.00787*%
%ADD21C,0.00700*%
%ADD22R,0.03162X0.07296*%
%ADD23R,0.06706X0.06706*%
%ADD24C,0.06706*%
%ADD25R,0.06706X0.06706*%
%ADD26R,0.09461X0.03162*%
%ADD27R,0.09540X0.04816*%
%ADD28R,0.02900X0.02400*%
%ADD29C,0.00984*%
%ADD30C,0.00100*%
%ADD31C,0.00800*%
D12*
X174334Y166999D02*
X177000D01*
Y164999D01*
X175667D01*
X177000D01*
Y163000D01*
X173001Y166999D02*
X170335D01*
X171668D01*
Y163000D01*
X169003Y166999D02*
Y163000D01*
X167003D01*
X166337Y163666D01*
Y166332D01*
X167003Y166999D01*
X169003D01*
X165004D02*
X163671D01*
X164337D01*
Y163000D01*
X165004D01*
X163671D01*
D21*
X215501Y185999D02*
X216001Y186499D01*
X217000D01*
X217500Y185999D01*
Y184000D01*
X217000Y183500D01*
X216001D01*
X215501Y184000D01*
X214501Y183500D02*
X213501D01*
X214001D01*
Y186499D01*
X214501Y185999D01*
X212002D02*
X211502Y186499D01*
X210502D01*
X210002Y185999D01*
Y185499D01*
X210502Y185000D01*
X211002D01*
X210502D01*
X210002Y184500D01*
Y184000D01*
X210502Y183500D01*
X211502D01*
X212002Y184000D01*
X209003Y185999D02*
X208503Y186499D01*
X207503D01*
X207003Y185999D01*
Y184000D01*
X207503Y183500D01*
X208503D01*
X209003Y184000D01*
Y185999D01*
X283000Y173500D02*
Y176499D01*
X281501D01*
X281001Y175999D01*
Y174999D01*
X281501Y174500D01*
X283000D01*
X282000D02*
X281001Y173500D01*
X280001D02*
X279001D01*
X279501D01*
Y176499D01*
X280001Y175999D01*
X276002Y173500D02*
Y176499D01*
X277502Y174999D01*
X275502D01*
X272503Y173500D02*
X274503D01*
X272503Y175499D01*
Y175999D01*
X273003Y176499D01*
X274003D01*
X274503Y175999D01*
X217500Y173500D02*
Y176499D01*
X216001D01*
X215501Y175999D01*
Y174999D01*
X216001Y174500D01*
X217500D01*
X216500D02*
X215501Y173500D01*
X212502D02*
X214501D01*
X212502Y175499D01*
Y175999D01*
X213001Y176499D01*
X214001D01*
X214501Y175999D01*
X209503Y173500D02*
X211502D01*
X209503Y175499D01*
Y175999D01*
X210002Y176499D01*
X211002D01*
X211502Y175999D01*
X208503D02*
X208003Y176499D01*
X207003D01*
X206504Y175999D01*
Y174000D01*
X207003Y173500D01*
X208003D01*
X208503Y174000D01*
Y175999D01*
X217500Y168500D02*
Y171499D01*
X216001D01*
X215501Y170999D01*
Y170000D01*
X216001Y169500D01*
X217500D01*
X216500D02*
X215501Y168500D01*
X212502D02*
X214501D01*
X212502Y170499D01*
Y170999D01*
X213001Y171499D01*
X214001D01*
X214501Y170999D01*
X209503Y168500D02*
X211502D01*
X209503Y170499D01*
Y170999D01*
X210002Y171499D01*
X211002D01*
X211502Y170999D01*
X208503Y168500D02*
X207503D01*
X208003D01*
Y171499D01*
X208503Y170999D01*
D29*
X254892Y188600D02*
G03*
X254892Y188600I-492J0D01*
G01*
D30*
X262000Y173500D02*
X265000D01*
X262000D02*
Y176500D01*
X267000Y173500D02*
X270000D01*
Y176500D01*
X262000D02*
X265000D01*
X265700Y174200D02*
Y175800D01*
X266300Y174200D02*
Y175800D01*
X267000Y176500D02*
X270000D01*
X225000D02*
X228000D01*
Y173500D02*
Y176500D01*
X220000D02*
X223000D01*
X220000Y173500D02*
Y176500D01*
X225000Y173500D02*
X228000D01*
X224300Y174200D02*
Y175800D01*
X223700Y174200D02*
Y175800D01*
X220000Y173500D02*
X223000D01*
X225000Y186500D02*
X228000D01*
Y183500D02*
Y186500D01*
X220000D02*
X223000D01*
X220000Y183500D02*
Y186500D01*
X225000Y183500D02*
X228000D01*
X224300Y184200D02*
Y185800D01*
X223700Y184200D02*
Y185800D01*
X220000Y183500D02*
X223000D01*
X225000Y171500D02*
X228000D01*
Y168500D02*
Y171500D01*
X220000D02*
X223000D01*
X220000Y168500D02*
Y171500D01*
X225000Y168500D02*
X228000D01*
X224300Y169200D02*
Y170800D01*
X223700Y169200D02*
Y170800D01*
X220000Y168500D02*
X223000D01*
D31*
X250000Y164499D02*
Y161167D01*
X249334Y160500D01*
X248001D01*
X247334Y161167D01*
Y164499D01*
X246001Y160500D02*
X244668D01*
X245335D01*
Y164499D01*
X246001Y163832D01*
X242669D02*
X242003Y164499D01*
X240670D01*
X240003Y163832D01*
Y163166D01*
X240670Y162499D01*
X240003Y161833D01*
Y161167D01*
X240670Y160500D01*
X242003D01*
X242669Y161167D01*
Y161833D01*
X242003Y162499D01*
X242669Y163166D01*
Y163832D01*
X242003Y162499D02*
X240670D01*
M02*
