M48
;Layer_Color=9474304
;FILE_FORMAT=2:5
INCH,LZ
;TYPE=PLATED
T1F00S00C0.03543
%
T01
X00755Y00075
X00855
X00955
X01055
X01155
X01255
X01355
X01455
X01555
X01655
X01755
X01855
X01955
X02055
Y00175
X01955
X01855
X01755
X01655
X01555
X01455
X01355
X01255
X01155
X01055
X00955
X00855
X00755
X02155
X02255
X02355
X02455
X02555
X02655
X02755
X02855
X02955
Y00075
X02855
X02755
X02655
X02555
X02455
X02355
X02255
X02155
X02195Y01175
X02295
X02395
X02495
X02595
X02695
X02795
X0312Y0147
Y0157
Y0167
Y0177
Y0187
Y0197
X02955Y01975
Y02075
X02855
Y01975
X02755
Y02075
X02655
Y01975
X02555
Y02075
X02455
Y01975
X02355
Y02075
X02255
Y01975
X02155
Y02075
X02055
Y01975
X01955
Y02075
X01855
Y01975
X01755
Y02075
X01655
Y01975
X01555
Y02075
X01455
Y01975
X01355
Y02075
X01255
Y01975
X01155
Y02075
X01055
Y01975
X00955
Y02075
X00855
Y01975
X00755
Y02075
X00715Y01175
X00815
X00915
X01015
X01115
X01215
X01315
X01415
X01515
X01615
X01715
X01815
X01915
Y01075
X01815
X01715
X01615
X01515
X01415
X01315
X01215
X01115
X01015
X00915
X00815
X00715
X00615
Y01175
X02095
X00515
Y01075
M30
