%FSLAX25Y25*%
%MOIN*%
G70*
G01*
G75*
G04 Layer_Color=16711935*
%ADD10R,0.02362X0.06496*%
%ADD11C,0.02000*%
%ADD12C,0.01000*%
%ADD13R,0.05906X0.05906*%
%ADD14C,0.05906*%
%ADD15R,0.05906X0.05906*%
%ADD16R,0.08661X0.02362*%
%ADD17R,0.08740X0.04016*%
%ADD18R,0.02500X0.02000*%
%ADD19C,0.03000*%
%ADD20C,0.00787*%
%ADD21C,0.00700*%
%ADD22R,0.03162X0.07296*%
%ADD23R,0.06706X0.06706*%
%ADD24C,0.06706*%
%ADD25R,0.06706X0.06706*%
%ADD26R,0.09461X0.03162*%
%ADD27R,0.09540X0.04816*%
%ADD28R,0.02900X0.02400*%
D23*
X191500Y117500D02*
D03*
X209500D02*
D03*
X295500Y207500D02*
D03*
Y17500D02*
D03*
D24*
X191500Y107500D02*
D03*
X181500Y117500D02*
D03*
Y107500D02*
D03*
X171500Y117500D02*
D03*
Y107500D02*
D03*
X161500Y117500D02*
D03*
Y107500D02*
D03*
X151500Y117500D02*
D03*
Y107500D02*
D03*
X141500Y117500D02*
D03*
Y107500D02*
D03*
X131500Y117500D02*
D03*
Y107500D02*
D03*
X121500Y117500D02*
D03*
Y107500D02*
D03*
X111500Y117500D02*
D03*
Y107500D02*
D03*
X101500Y117500D02*
D03*
Y107500D02*
D03*
X91500Y117500D02*
D03*
Y107500D02*
D03*
X81500Y117500D02*
D03*
Y107500D02*
D03*
X71500Y117500D02*
D03*
Y107500D02*
D03*
X61500Y117500D02*
D03*
Y107500D02*
D03*
X51500Y117500D02*
D03*
Y107500D02*
D03*
X279500Y117500D02*
D03*
X269500D02*
D03*
X259500D02*
D03*
X249500D02*
D03*
X239500D02*
D03*
X229500D02*
D03*
X219500D02*
D03*
X295500Y197500D02*
D03*
X285500Y207500D02*
D03*
Y197500D02*
D03*
X275500Y207500D02*
D03*
Y197500D02*
D03*
X265500Y207500D02*
D03*
Y197500D02*
D03*
X255500Y207500D02*
D03*
Y197500D02*
D03*
X245500Y207500D02*
D03*
Y197500D02*
D03*
X235500Y207500D02*
D03*
Y197500D02*
D03*
X225500Y207500D02*
D03*
Y197500D02*
D03*
X215500Y207500D02*
D03*
Y197500D02*
D03*
X205500Y207500D02*
D03*
Y197500D02*
D03*
X195500Y207500D02*
D03*
Y197500D02*
D03*
X185500Y207500D02*
D03*
Y197500D02*
D03*
X175500Y207500D02*
D03*
Y197500D02*
D03*
X165500Y207500D02*
D03*
Y197500D02*
D03*
X155500Y207500D02*
D03*
Y197500D02*
D03*
X145500Y207500D02*
D03*
Y197500D02*
D03*
X135500Y207500D02*
D03*
Y197500D02*
D03*
X125500Y207500D02*
D03*
Y197500D02*
D03*
X115500Y207500D02*
D03*
Y197500D02*
D03*
X105500Y207500D02*
D03*
Y197500D02*
D03*
X95500Y207500D02*
D03*
Y197500D02*
D03*
X85500Y207500D02*
D03*
Y197500D02*
D03*
X75500Y207500D02*
D03*
Y197500D02*
D03*
X312000Y147000D02*
D03*
Y157000D02*
D03*
Y167000D02*
D03*
Y177000D02*
D03*
Y187000D02*
D03*
X295500Y7500D02*
D03*
X285500Y17500D02*
D03*
Y7500D02*
D03*
X275500Y17500D02*
D03*
Y7500D02*
D03*
X265500Y17500D02*
D03*
Y7500D02*
D03*
X255500Y17500D02*
D03*
Y7500D02*
D03*
X245500Y17500D02*
D03*
Y7500D02*
D03*
X235500Y17500D02*
D03*
Y7500D02*
D03*
X225500Y17500D02*
D03*
Y7500D02*
D03*
X215500Y17500D02*
D03*
Y7500D02*
D03*
X205500Y17500D02*
D03*
Y7500D02*
D03*
X195500Y17500D02*
D03*
Y7500D02*
D03*
X185500Y17500D02*
D03*
Y7500D02*
D03*
X175500Y17500D02*
D03*
Y7500D02*
D03*
X165500Y17500D02*
D03*
Y7500D02*
D03*
X155500Y17500D02*
D03*
Y7500D02*
D03*
X145500Y17500D02*
D03*
Y7500D02*
D03*
X135500Y17500D02*
D03*
Y7500D02*
D03*
X125500Y17500D02*
D03*
Y7500D02*
D03*
X115500Y17500D02*
D03*
Y7500D02*
D03*
X105500Y17500D02*
D03*
Y7500D02*
D03*
X95500Y17500D02*
D03*
Y7500D02*
D03*
X85500Y17500D02*
D03*
Y7500D02*
D03*
X75500Y17500D02*
D03*
Y7500D02*
D03*
D25*
X312000Y197000D02*
D03*
D26*
X235551Y170000D02*
D03*
Y175000D02*
D03*
Y180000D02*
D03*
Y185000D02*
D03*
X254449Y170000D02*
D03*
Y175000D02*
D03*
Y180000D02*
D03*
Y185000D02*
D03*
D27*
X159256Y175000D02*
D03*
X181500D02*
D03*
Y185000D02*
D03*
X159256D02*
D03*
D28*
X268000Y175000D02*
D03*
X264000D02*
D03*
X222000D02*
D03*
X226000D02*
D03*
X222000Y185000D02*
D03*
X226000D02*
D03*
X222000Y170000D02*
D03*
X226000D02*
D03*
M02*
